<?xml version="1.0" encoding="UTF-8" standalone="no"?>
<!DOCTYPE svg PUBLIC "-//W3C//DTD SVG 1.1//EN" "http://www.w3.org/Graphics/SVG/1.1/DTD/svg11.dtd">
<svg width="100%" height="100%" viewBox="0 0 120 120" version="1.1" xmlns="http://www.w3.org/2000/svg" xmlns:xlink="http://www.w3.org/1999/xlink" xml:space="preserve" xmlns:serif="http://www.serif.com/" style="fill-rule:evenodd;clip-rule:evenodd;stroke-linejoin:round;stroke-miterlimit:2;">
    <circle cx="60" cy="60" r="60" style="fill:rgb(225,227,232);"/>
    <g>
        <path d="M80.7,100.1C74.5,103.4 67.5,105.2 60,105.2C35.2,105.2 15.2,85 15.2,60C15.2,35 35.2,14.8 60,14.8C84.8,14.8 104.8,35 104.8,60C104.8,62.9 104.5,65.8 104,68.5C101.6,78.7 95,77.1 95,77.1C95,77.1 86,72.8 79.3,78C75,81.3 78,92.5 80.7,100.1ZM69.1,88.4C69.1,85.2 66.5,82.6 63.3,82.6C60.1,82.6 57.5,85.2 57.5,88.4C57.5,91.6 60.1,94.2 63.3,94.2C66.5,94.2 69.1,91.6 69.1,88.4Z" style="fill:white;fill-rule:nonzero;"/>
        <circle cx="39.1" cy="74" r="10.7" style="fill:rgb(237,95,107);"/>
        <circle cx="35.6" cy="46.8" r="10.7" style="fill:rgb(150,221,95);"/>
        <circle cx="60" cy="32.2" r="10.7" style="fill:rgb(55,208,225);"/>
        <circle cx="84.5" cy="45.8" r="10.7" style="fill:rgb(246,197,106);"/>
    </g>
</svg>
